<?xml version="1.0" encoding="utf-8"?>
<!-- Generator: Adobe Illustrator 25.0.1, SVG Export Plug-In . SVG Version: 6.00 Build 0)  -->
<svg version="1.0" id="Layer_1" xmlns="http://www.w3.org/2000/svg" xmlns:xlink="http://www.w3.org/1999/xlink" x="0px" y="0px"
	 viewBox="0 0 1163.9 710" style="enable-background:new 0 0 1163.9 710;" xml:space="preserve">
<style type="text/css">
	.st0{fill-rule:evenodd;clip-rule:evenodd;}
</style>
<path class="st0" d="M711.3,428.4v-63.8c4.2,0,8.4,0.9,12.1,2.5c-1.5-3.7-2.4-7.8-2.4-12.1c0-4.5,0.9-8.7,2.7-12.6
	c-3.8,1.7-8,2.6-12.4,2.6v-63.8c17.4,0.1,31.6,14.4,31.6,31.9c0,4.5-0.9,8.8-2.7,12.7c3.9-1.7,8.2-2.7,12.7-2.7
	c17.6,0,31.9,14.4,31.9,31.9c0,17.6-14.3,31.9-31.9,31.9c-4.4,0-8.6-0.9-12.4-2.5c1.5,3.7,2.4,7.8,2.4,12.1
	C742.9,414,728.7,428.3,711.3,428.4L711.3,428.4z M835.4,291h64.5c20.4,0,37.2,16.7,37.2,37.2v93.5h-36.4v-93.8
	c0-1.9-1.5-3.4-3.4-3.4h-59.3c-1.9,0-3.4,1.5-3.4,3.4v93.8h-36.4v-93.5C798.3,307.7,815,291,835.4,291z M711.3,281.2V345
	c-0.1,0-0.2,0-0.3,0c-4.3,0-8.4-0.8-12.1-2.4c1.6,3.8,2.5,8.1,2.5,12.4c0,4.2-0.9,8.2-2.3,11.9c3.7-1.5,7.7-2.3,11.9-2.3
	c0.1,0,0.1,0,0.3,0v63.8c-0.1,0-0.2,0-0.3,0c-17.6,0-31.9-14.3-31.9-31.9c0-4.2,0.8-8.2,2.2-11.9c-3.7,1.5-7.6,2.3-11.8,2.3
	c-11.6,0-21.8-6.3-27.4-15.5v-32.8c5.5-9.3,15.8-15.6,27.4-15.6c4.2,0,8.4,0.9,12.1,2.4c-1.7-3.8-2.5-8.1-2.5-12.5
	c0-17.6,14.3-31.9,31.9-31.9C711.1,281.2,711.1,281.2,711.3,281.2L711.3,281.2z M642.2,324.7h4.5v-32.8h-4.5V324.7z M642.2,291.9
	v32.8h-43.7v97.9h-37.9v-97.9h-47v-32.8H642.2L642.2,291.9z M642.2,338.7c-2.9,4.8-4.6,10.4-4.6,16.3c0,6,1.7,11.6,4.6,16.4V338.7
	L642.2,338.7z M513.6,368.6c2-4.1,3.1-8.8,3.1-13.6s-1.1-9.5-3.1-13.6V368.6z M513.6,291.9v32.8h-3v-32.8H513.6L513.6,291.9z
	 M513.6,341.4c-5.1-10.8-16.1-18.3-28.8-18.3c-4.5,0-8.8,0.9-12.7,2.7c1.7-3.9,2.7-8.1,2.7-12.7c0-17.5-14.2-31.8-31.7-31.9V345
	c4.4,0,8.6-0.9,12.4-2.6c-1.7,3.9-2.6,8.1-2.6,12.6c0,4.2,0.9,8.4,2.4,12.1c-3.7-1.6-7.8-2.5-12.2-2.5v63.8
	c17.5-0.1,31.7-14.4,31.7-31.9c0-4.3-0.9-8.4-2.4-12.1c3.9,1.6,8.1,2.5,12.5,2.5c12.7,0,23.7-7.5,28.8-18.3V341.4z M443.1,281.2V345
	c-0.1,0-0.1,0-0.3,0c-4.2,0-8.4-0.8-12.1-2.4c1.7,3.8,2.6,8.1,2.6,12.4c0,4.2-0.9,8.2-2.3,11.9c3.7-1.5,7.6-2.3,11.8-2.3
	c0.1,0,0.2,0,0.3,0v63.8c-0.1,0-0.1,0-0.3,0c-17.6,0-31.9-14.3-31.9-31.9c0-4.2,0.9-8.2,2.3-11.9c-3.7,1.5-7.6,2.3-11.9,2.3
	c-7,0-13.5-2.3-18.8-6.2v-51.4c5.3-3.9,11.8-6.2,18.8-6.2c4.3,0,8.4,0.9,12.1,2.4c-1.6-3.8-2.5-8.1-2.5-12.5
	c0-17.6,14.3-31.9,31.9-31.9C442.9,281.2,443,281.2,443.1,281.2L443.1,281.2z M382.5,422.6h13.1L382.5,412V422.6L382.5,422.6z
	 M382.5,300.3l10.4-8.4h-10.4V300.3z M228.5,291.9h38v130.8h-38V291.9L228.5,291.9z M382.5,291.9v8.4l-69,55.6l69,56.1v10.7h-43.6
	L286,378.5c-3.5-3-6.2-5.3-8.6-9.4c-2.8-4.7-4.3-9.6-3.8-14.5c0.4-3.9,2.2-7.8,5-11.7c2.3-3.2,4.8-5.3,7.8-7.7l53.1-43.3H382.5
	L382.5,291.9z M382.5,329.3c-7.9,5.8-13.1,15.2-13.1,25.7s5.2,19.9,13.1,25.7V329.3z"/>
</svg>
